<svg xmlns="http://www.w3.org/2000/svg" xmlns:xlink="http://www.w3.org/1999/xlink" width="28.643" height="27.898" viewBox="0 0 28.643 27.898"><defs><style>.a{fill:#fff;}.b{fill:#eaeaea;}.c{clip-path:url(#a);}.d{fill:none;}.e{fill:#464646;}.f,.g{stroke:none;}.g{fill:#464646;}</style><clipPath id="a"><rect class="a" width="22.058" height="20.112" transform="matrix(0.899, 0.438, -0.438, 0.899, 8.817, 0)"/></clipPath></defs><path class="a" d="M27.874,250.984a9.989,9.989,0,0,1-8.719,9.938,9.67,9.67,0,0,1-1.22.076,10.014,10.014,0,0,1,0-20.028,9.648,9.648,0,0,1,1.22.075A9.989,9.989,0,0,1,27.874,250.984Zm0,0" transform="translate(-4.052 -235.937)"/><path class="b" d="M126.552,251.058a10.136,10.136,0,0,1-11.376,10.054,10.131,10.131,0,0,0,0-20.11A10.135,10.135,0,0,1,126.552,251.058Zm0,0" transform="translate(-102.699 -235.908)"/><path class="b" d="M19.841,260.892C13.622,261.636,8,257.02,8,250.949S13.628,240.261,19.841,241a9.97,9.97,0,0,0,0,19.888Zm0,0" transform="translate(-4.678 -235.911)"/><g class="c" transform="translate(0 0)"><g class="d" transform="translate(3.351 4.348)"><path class="f" d="M10.718,0A10.718,10.718,0,1,1,0,10.718,10.718,10.718,0,0,1,10.718,0Z"/><path class="g" d="M 10.7177267074585 1.499996185302734 C 5.635056495666504 1.499996185302734 1.499996185302734 5.635055541992188 1.499996185302734 10.71772575378418 C 1.499996185302734 15.80039596557617 5.635056495666504 19.93545532226562 10.7177267074585 19.93545532226562 C 15.80039691925049 19.93545532226562 19.93545722961426 15.80039596557617 19.93545722961426 10.71772575378418 C 19.93545722961426 5.635055541992188 15.80039691925049 1.499996185302734 10.7177267074585 1.499996185302734 M 10.7177267074585 -3.814697265625e-06 C 16.63696670532227 -3.814697265625e-06 21.43545722961426 4.798484802246094 21.43545722961426 10.71772575378418 C 21.43545722961426 16.63695526123047 16.63696670532227 21.43545532226562 10.7177267074585 21.43545532226562 C 4.798486709594727 21.43545532226562 -3.814697265625e-06 16.63695526123047 -3.814697265625e-06 10.71772575378418 C -3.814697265625e-06 4.798484802246094 4.798486709594727 -3.814697265625e-06 10.7177267074585 -3.814697265625e-06 Z"/></g></g><path class="e" d="M2.552.314a.568.568,0,0,1,1.017,0L6.06,5.3a.568.568,0,0,1-.508.823H.569A.568.568,0,0,1,.061,5.3Z" transform="translate(10.406 27.898) rotate(-90)"/><g transform="translate(10.633 10.193)"><path class="e" d="M98.679,493.161a1.266,1.266,0,0,0,.03.287.8.8,0,0,0,.091.243.492.492,0,0,0,.161.165.455.455,0,0,0,.246.063,1.953,1.953,0,0,0,.66-.137,3.036,3.036,0,0,0,.728-.389,2.939,2.939,0,0,0,.623-.612,1.952,1.952,0,0,0,.361-.8,1.091,1.091,0,0,1-.254.084,1.231,1.231,0,0,1-.254.027,1.165,1.165,0,0,1-.834-.352,1.224,1.224,0,0,1-.261-.4,1.342,1.342,0,0,1-.1-.51,1.416,1.416,0,0,1,.085-.484,1.249,1.249,0,0,1,.254-.419,1.3,1.3,0,0,1,.415-.3,1.363,1.363,0,0,1,.575-.113,1.367,1.367,0,0,1,1.225.634,1.779,1.779,0,0,1,.245.6,2.887,2.887,0,0,1,.07.6,3.414,3.414,0,0,1-.161,1.057,3.466,3.466,0,0,1-.44.894,3.566,3.566,0,0,1-.649.714,4.208,4.208,0,0,1-.788.528,3.9,3.9,0,0,1-.862.326,3.542,3.542,0,0,1-.862.111c-.069,0-.162-.007-.282-.017a2.3,2.3,0,0,1-.393-.081,2.37,2.37,0,0,1-.436-.18,1.389,1.389,0,0,1-.4-.319,1.59,1.59,0,0,1-.293-.5,2.054,2.054,0,0,1-.113-.727v-3.977H95.385v-.91h1.68a1.955,1.955,0,0,0-.043-.415,1.482,1.482,0,0,0-.124-.345.675.675,0,0,0-.206-.239.481.481,0,0,0-.287-.089,1.449,1.449,0,0,0-.415.063,1.826,1.826,0,0,0-.408.18l-.367-1.182a3.924,3.924,0,0,1,.691-.217,3.08,3.08,0,0,1,.595-.069,2.142,2.142,0,0,1,1.606.586,2.37,2.37,0,0,1,.573,1.724h3.532v.91H98.679Z" transform="translate(-95.216 -485.955)"/></g></svg>