<svg xmlns="http://www.w3.org/2000/svg" width="16" height="16" viewBox="0 0 16 16"><defs><style>.a{fill:#e2136e;}</style></defs><g transform="translate(-0.004 0)"><path class="a" d="M10.039,16a1.1,1.1,0,0,1-1.1-1.1V10.039a1.1,1.1,0,0,1,1.1-1.1H14.9a1.1,1.1,0,0,1,1.1,1.1V14.9A1.1,1.1,0,0,1,14.9,16Zm.157-1.255h4.549V10.2H10.2ZM1.1,16A1.1,1.1,0,0,1,0,14.9V10.039a1.1,1.1,0,0,1,1.1-1.1H5.961a1.1,1.1,0,0,1,1.1,1.1V14.9a1.1,1.1,0,0,1-1.1,1.1Zm.157-1.255H5.8V10.2H1.255Zm8.785-7.686a1.1,1.1,0,0,1-1.1-1.1V1.1a1.1,1.1,0,0,1,1.1-1.1H14.9A1.1,1.1,0,0,1,16,1.1V5.961a1.1,1.1,0,0,1-1.1,1.1ZM10.2,5.8h4.549V1.255H10.2ZM1.1,7.059A1.1,1.1,0,0,1,0,5.961V1.1A1.1,1.1,0,0,1,1.1,0H5.961a1.1,1.1,0,0,1,1.1,1.1V5.961a1.1,1.1,0,0,1-1.1,1.1ZM1.255,5.8H5.8V1.255H1.255Z" transform="translate(0.004 0)"/></g></svg>