<svg xmlns="http://www.w3.org/2000/svg" width="66.208" height="65.851" viewBox="0 0 66.208 65.851">
  <g id="Group_178" data-name="Group 178" transform="translate(-189.854 -264.898)">
    <path id="Path_1" data-name="Path 1" d="M376.372,330.749H347.023c-2.538,0-3.788-1.242-3.789-3.8q-.006-29.127,0-58.254c0-2.555,1.249-3.8,3.785-3.8q29.348,0,58.7,0c2.464,0,3.716,1.211,3.717,3.666q.011,29.258,0,58.516c0,2.451-1.253,3.667-3.714,3.668Q391.046,330.751,376.372,330.749Z" transform="translate(-153.378 0)" fill="#d2005c"/>
    <path id="Path_5" data-name="Path 5" d="M364.485,289.127c6.294.757,12.362,1.488,18.43,2.215,1.18.141,2.359.291,3.542.392.489.042.671.175.529.688q-2.57,9.238-5.125,18.48c-.013.047-.078.08-.192.19Z" transform="translate(-166.527 -14.99)" fill="#fff"/>
    <path id="Path_6" data-name="Path 6" d="M434.6,319.826c-2.914-.45-5.632-.863-8.348-1.29-4.292-.675-8.581-1.375-12.878-2.02-.593-.089-.627-.273-.49-.764q2.571-9.24,5.121-18.487c.014-.05.071-.087.192-.228Z" transform="translate(-196.433 -19.884)" fill="#fff"/>
    <path id="Path_7" data-name="Path 7" d="M433.732,354.193l-7.412,3.7q-4.977,2.483-9.95,4.972c-.469.236-.7.339-.855-.359-.805-3.676-1.671-7.339-2.527-11-.124-.53-.054-.709.566-.608,6.463,1.051,12.931,2.072,19.4,3.1C433.149,354.028,433.34,354.094,433.732,354.193Z" transform="translate(-196.505 -53.188)" fill="#fff"/>
    <path id="Path_8" data-name="Path 8" d="M392.272,374.712l6.607-23.173.193,0q.592,2.671,1.184,5.342c.687,3.11,1.365,6.222,2.069,9.329.078.346.093.577-.216.826q-4.674,3.769-9.327,7.565A.447.447,0,0,1,392.272,374.712Z" transform="translate(-183.719 -53.604)" fill="#fff"/>
    <path id="Path_9" data-name="Path 9" d="M455.61,329.545l10.628-1.914-4.055,11Z" transform="translate(-222.907 -38.813)" fill="#fff"/>
    <path id="Path_10" data-name="Path 10" d="M487.637,332.654c-1.706,0-3.411-.011-5.116.007-.5.005-.608-.131-.42-.6.446-1.126.863-2.264,1.267-3.406.132-.372.239-.5.565-.16,1.255,1.306,2.524,2.6,3.787,3.9Z" transform="translate(-239.244 -39.223)" fill="#fffdfe"/>
    <path id="Path_11" data-name="Path 11" d="M434.537,367.762l13.57-6.854c-.227,1.258-.573,2.015-1.758,2.453-3.606,1.331-7.148,2.835-10.719,4.262A1.187,1.187,0,0,1,434.537,367.762Z" transform="translate(-209.869 -59.401)" fill="#fffcfd"/>
    <path id="Path_12" data-name="Path 12" d="M371.611,307.43l-8.427-7.912c1.579-.456,2.266-.255,3.173.9q2.7,3.435,5.389,6.875Z" transform="translate(-165.723 -21.28)" fill="#fffcfd"/>
    <path id="Path_13" data-name="Path 13" d="M432.276,379.745a.759.759,0,0,1,.83-.381A.95.95,0,0,1,432.276,379.745Z" transform="translate(-208.47 -70.817)" fill="#f1bbd5"/>
    <path id="Path_14" data-name="Path 14" d="M427.9,382.046c-.113.02-.221.035-.182-.092.02-.064.124-.115.2-.144s.191-.017.156.1C428.058,381.976,427.948,382.013,427.9,382.046Z" transform="translate(-205.646 -72.326)" fill="#d82a77"/>
  </g>
</svg>
