<svg xmlns="http://www.w3.org/2000/svg" width="160.733" height="65.851" viewBox="0 0 160.733 65.851">
    <g id="Group_1" data-name="Group 1" transform="translate(-95.329 -264.898)">
        <path id="Path_1" data-name="Path 1" d="M376.372,330.749H347.023c-2.538,0-3.788-1.242-3.789-3.8q-.006-29.127,0-58.254c0-2.555,1.249-3.8,3.785-3.8q29.348,0,58.7,0c2.464,0,3.716,1.211,3.717,3.666q.011,29.258,0,58.516c0,2.451-1.253,3.667-3.714,3.668Q391.046,330.751,376.372,330.749Z" transform="translate(-153.378 0)" fill="#d2005c"/>
        <path id="Path_2" data-name="Path 2" d="M145.331,327.586q0-6.788,0-13.578c0-1.212.054-1.255,1.227-1.1a2.43,2.43,0,0,0,.517.031c1.215-.1,1.217-.1,1.217,1.161,0,3.627-.006,7.253.011,10.88,0,.4-.235,1,.292,1.155.555.166.852-.417,1.139-.786,2.364-3.044,4.707-6.1,7.056-9.16.742-.965,1.478-1.935,2.225-2.9a3.841,3.841,0,0,1,2.6-.409c.307.231.032.4-.1.565-1.831,2.243-3.677,4.475-5.5,6.727-1.4,1.735-2.769,3.5-4.159,5.241a.847.847,0,0,0-.028,1.166q3.773,5.376,7.5,10.78c.985,1.433,1.9,2.917,2.838,4.378.093.144.216.3.121.478-.123.235-.342.169-.539.133a5.955,5.955,0,0,0-2.333,0,.89.89,0,0,1-1.06-.534c-2.738-4.827-6.125-9.229-9.113-13.892-.166-.259-.324-.655-.7-.535s-.244.545-.245.844q-.013,6.528-.007,13.055c0,1.082,0,1.079-1.105.98a5.391,5.391,0,0,0-.609-.014c-1.247.028-1.247.03-1.247-1.272Z" transform="translate(-30.937 -29.631)" fill="#191717"/>
        <path id="Path_3" data-name="Path 3" d="M283.964,326.87a26.1,26.1,0,0,1,1.876-2.22c2.935-2.4,8.147-1.876,8.9,3.411a17.129,17.129,0,0,1,.2,2.508c-.016,3.6-.023,7.194.007,10.79.006.758-.176,1.113-.981.868a.978.978,0,0,0-.26-.012c-1.388-.025-1.388-.025-1.388-1.479,0-2.872.024-5.743-.011-8.615a20.05,20.05,0,0,0-.359-3.71c-.363-1.806-1.433-2.938-2.864-3.08a4,4,0,0,0-4.427,2.343,8.892,8.892,0,0,0-.689,3.646q-.035,4.959,0,9.92c.007.776-.08,1.274-1.036.986-.472-.143-1.083.3-1.417-.042-.413-.427-.166-1.11-.167-1.677q-.018-13.183,0-26.366c0-.433-.244-1.058.289-1.255a3.174,3.174,0,0,1,2.049,0c.4.13.263.6.264.932q.011,5.96,0,11.921Z" transform="translate(-115.051 -29.586)" fill="#191717"/>
        <path id="Path_4" data-name="Path 4" d="M244.265,345.04a2.937,2.937,0,0,0,1.807,2.913c.918.43,1.858.815,2.8,1.189a5.36,5.36,0,0,1,1.38,9.242,7.207,7.207,0,0,1-7.848.639c-.414-.235-.605-.488-.451-.976.165-.524.279-1.064.412-1.6.049-.2.06-.442.279-.5.263-.074.311.2.418.36a5.744,5.744,0,0,0,1.961,1.931,3.157,3.157,0,0,0,4.431-1.175c1.072-2.017.565-4.022-1.286-4.9a13.171,13.171,0,0,0-2.359-.886c-4.09-1.046-4.4-4.708-3.328-7.6.855-2.307,3.15-3.314,5.636-3.111a7.708,7.708,0,0,1,2.607.613c.232.105.592.178.524.49a15.944,15.944,0,0,1-.666,2.333c-.129.334-.372.08-.5-.128a7.206,7.206,0,0,0-.508-.806c-1.123-1.341-1.985-1.651-3.23-1.192A2.992,2.992,0,0,0,244.265,345.04Z" transform="translate(-90.685 -46.798)" fill="#191717"/>
        <path id="Path_5" data-name="Path 5" d="M364.485,289.127c6.294.757,12.362,1.488,18.43,2.215,1.18.141,2.359.291,3.542.392.489.042.671.175.529.688q-2.57,9.238-5.125,18.48c-.013.047-.078.08-.192.19Z" transform="translate(-166.527 -14.99)" fill="#fff"/>
        <path id="Path_6" data-name="Path 6" d="M434.6,319.826c-2.914-.45-5.632-.863-8.348-1.29-4.292-.675-8.581-1.375-12.878-2.02-.593-.089-.627-.273-.49-.764q2.571-9.24,5.121-18.487c.014-.05.071-.087.192-.228Z" transform="translate(-196.433 -19.884)" fill="#fff"/>
        <path id="Path_7" data-name="Path 7" d="M433.732,354.193l-7.412,3.7q-4.977,2.483-9.95,4.972c-.469.236-.7.339-.855-.359-.805-3.676-1.671-7.339-2.527-11-.124-.53-.054-.709.566-.608,6.463,1.051,12.931,2.072,19.4,3.1C433.149,354.028,433.34,354.094,433.732,354.193Z" transform="translate(-196.505 -53.188)" fill="#fff"/>
        <path id="Path_8" data-name="Path 8" d="M392.272,374.712l6.607-23.173.193,0q.592,2.671,1.184,5.342c.687,3.11,1.365,6.222,2.069,9.329.078.346.093.577-.216.826q-4.674,3.769-9.327,7.565A.447.447,0,0,1,392.272,374.712Z" transform="translate(-183.719 -53.604)" fill="#fff"/>
        <path id="Path_9" data-name="Path 9" d="M455.61,329.545l10.628-1.914-4.055,11Z" transform="translate(-222.907 -38.813)" fill="#fff"/>
        <path id="Path_10" data-name="Path 10" d="M487.637,332.654c-1.706,0-3.411-.011-5.116.007-.5.005-.608-.131-.42-.6.446-1.126.863-2.264,1.267-3.406.132-.372.239-.5.565-.16,1.255,1.306,2.524,2.6,3.787,3.9Z" transform="translate(-239.244 -39.223)" fill="#fffdfe"/>
        <path id="Path_11" data-name="Path 11" d="M434.537,367.762l13.57-6.854c-.227,1.258-.573,2.015-1.758,2.453-3.606,1.331-7.148,2.835-10.719,4.262A1.187,1.187,0,0,1,434.537,367.762Z" transform="translate(-209.869 -59.401)" fill="#fffcfd"/>
        <path id="Path_12" data-name="Path 12" d="M371.611,307.43l-8.427-7.912c1.579-.456,2.266-.255,3.173.9q2.7,3.435,5.389,6.875Z" transform="translate(-165.723 -21.28)" fill="#fffcfd"/>
        <path id="Path_13" data-name="Path 13" d="M432.276,379.745a.759.759,0,0,1,.83-.381A.95.95,0,0,1,432.276,379.745Z" transform="translate(-208.47 -70.817)" fill="#f1bbd5"/>
        <path id="Path_14" data-name="Path 14" d="M427.9,382.046c-.113.02-.221.035-.182-.092.02-.064.124-.115.2-.144s.191-.017.156.1C428.058,381.976,427.948,382.013,427.9,382.046Z" transform="translate(-205.646 -72.326)" fill="#d82a77"/>
        <path id="Path_15" data-name="Path 15" d="M109.259,326.439a6.009,6.009,0,0,0-9.82-.914c-.472.525-.867,1.119-1.413,1.829v-1q0-6.047,0-12.094c0-1.338,0-1.333-1.322-1.282a2.425,2.425,0,0,1-.691-.064c-.58-.149-.674.118-.673.632q.018,14.052.016,28.1c0,.228-.147.555.229.654a.675.675,0,0,0,.687-.267c.494-.53,1.009-1.042,1.5-1.578.332-.365.54-.466.882.049a4.842,4.842,0,0,0,2.173,1.809,6.477,6.477,0,0,0,7.658-2.234A13.135,13.135,0,0,0,109.259,326.439Zm-2.785,12.571a3.975,3.975,0,0,1-3.752,2.527,4.2,4.2,0,0,1-3.847-2.663,10.74,10.74,0,0,1-.914-4.99,14.643,14.643,0,0,1,1.1-6.016c1.079-2.369,3.109-3.354,5.354-2.63a4.047,4.047,0,0,1,2.618,2.716A14.245,14.245,0,0,1,106.474,339.01Z" transform="translate(0 -29.683)" fill="#d2005c"/>
        <path id="Path_16" data-name="Path 16" d="M209.225,358.18c-1.3-.234-1.381-.329-1.384-1.652-.006-3.453.072-6.908-.032-10.358-.065-2.188-.692-4.208-2.934-5.234-2.377-1.087-5.9-.068-7.593,1.4a1.386,1.386,0,0,0-.413,1.268c.027.331-.177.829.179.949.38.129.477-.4.675-.66A4.371,4.371,0,0,1,202.2,342.2a3.372,3.372,0,0,1,2.906,2.864c.459,2.443.5,3.639-2.487,4.144-1.142.193-2.271.457-3.4.739-3.6.9-4.331,3.792-3.511,6.79.72,2.631,3.194,3.661,6.007,2.871a9.463,9.463,0,0,0,3.539-2.391c.784,2.067,2.2,2.737,3.955,1.971.281-.122.534-.258.505-.617C209.69,358.284,209.473,358.225,209.225,358.18Zm-6.273-.4a3.144,3.144,0,0,1-3.461-.134,2.231,2.231,0,0,1-.468-.382c-1.41-1.554-.981-4.845.8-5.927a15.375,15.375,0,0,1,4.793-1.476c.468-.105.6.225.6.627q0,1.174,0,2.347h0c0,.551-.036,1.1.007,1.651C205.365,356.205,204.149,357.043,202.952,357.777Z" transform="translate(-61.917 -46.764)" fill="#040505"/>
    </g>
</svg>

